ffmpeg started on 2016-11-28 at 04:12:25
Report written to "Output/NVENCh264/results/ffmpeg/old_town_cross_2160p50llhp9000k.log"
Command line:
Tools/ffmpeg/ffmpeg -benchmark -y -i Input/y4m/old_town_cross_2160p50.y4m -c:v h264_nvenc -preset llhp -b:v 9000k -an Output/NVENCh264/encoded/old_town_cross_2160p50llhp9000k.mkv
ffmpeg version N-82227-gdb23fde Copyright (c) 2000-2016 the FFmpeg developers
  built with gcc 5.4.0 (Ubuntu 5.4.0-6ubuntu1~16.04.2) 20160609
  configuration: --prefix=/home/jaroslav/ffmpeg_build --pkg-config-flags=--static --extra-cflags=-I/home/jaroslav/ffmpeg_build/include --extra-ldflags=-L/home/jaroslav/ffmpeg_build/lib --bindir=/home/jaroslav/bin --enable-gpl --enable-libass --enable-libfdk-aac --enable-libfreetype --enable-libmp3lame --enable-libopus --enable-libtheora --enable-libvorbis --enable-libvpx --enable-libx264 --enable-libx265 --enable-nvenc --enable-libmfx --enable-libxvid --enable-libgsm --enable-libopencore-amrnb --enable-version3 --enable-nonfree
  libavutil      55. 35.100 / 55. 35.100
  libavcodec     57. 66.101 / 57. 66.101
  libavformat    57. 57.100 / 57. 57.100
  libavdevice    57.  2.100 / 57.  2.100
  libavfilter     6. 66.100 /  6. 66.100
  libswscale      4.  3.100 /  4.  3.100
  libswresample   2.  4.100 /  2.  4.100
  libpostproc    54.  2.100 / 54.  2.100
Input #0, yuv4mpegpipe, from 'Input/y4m/old_town_cross_2160p50.y4m':
  Duration: 00:00:10.00, start: 0.000000, bitrate: 4976642 kb/s
    Stream #0:0: Video: rawvideo (I420 / 0x30323449), yuv420p(progressive), 3840x2160, SAR 1:1 DAR 16:9, 50 fps, 50 tbr, 50 tbn, 50 tbc
[h264_nvenc @ 0x39f8120] The variable bitrate rate-control requires the 'qmin' and/or 'qmax' option set.
Output #0, matroska, to 'Output/NVENCh264/encoded/old_town_cross_2160p50llhp9000k.mkv':
  Metadata:
    encoder         : Lavf57.57.100
    Stream #0:0: Video: h264 (h264_nvenc) (Main) (H264 / 0x34363248), yuv420p, 3840x2160 [SAR 1:1 DAR 16:9], q=-1--1, 9000 kb/s, 50 fps, 1k tbn, 50 tbc
    Metadata:
      encoder         : Lavc57.66.101 h264_nvenc
    Side data:
      cpb: bitrate max/min/avg: 0/0/9000000 buffer size: 18000000 vbv_delay: -1
Stream mapping:
  Stream #0:0 -> #0:0 (rawvideo (native) -> h264 (h264_nvenc))
Press [q] to stop, [?] for help
frame=   20 fps=0.0 q=0.0 size=       0kB time=00:00:00.00 bitrate=N/A speed=   0x    frame=   38 fps= 36 q=36.0 size=       1kB time=00:00:00.14 bitrate=  42.4kbits/s speed=0.135x    frame=   56 fps= 36 q=32.0 size=       1kB time=00:00:00.50 bitrate=  11.9kbits/s speed=0.322x    frame=   65 fps= 31 q=32.0 size=       1kB time=00:00:00.68 bitrate=   8.8kbits/s speed=0.329x    frame=   83 fps= 32 q=34.0 size=       1kB time=00:00:01.04 bitrate=   5.7kbits/s speed=0.403x    frame=   98 fps= 29 q=34.0 size=       1kB time=00:00:01.34 bitrate=   4.5kbits/s speed=0.399x    frame=  116 fps= 30 q=31.0 size=       1kB time=00:00:01.70 bitrate=   3.5kbits/s speed=0.438x    frame=  134 fps= 30 q=32.0 size=       1kB time=00:00:02.06 bitrate=   2.9kbits/s speed=0.469x    frame=  152 fps= 31 q=34.0 size=       1kB time=00:00:02.42 bitrate=   2.5kbits/s speed=0.493x    frame=  170 fps= 31 q=33.0 size=       1kB time=00:00:02.78 bitrate=   2.2kbits/s speed=0.513x    frame=  188 fps= 32 q=34.0 size=       1kB time=00:00:03.14 bitrate=   1.9kbits/s speed=0.529x    frame=  206 fps= 31 q=32.0 size=       1kB time=00:00:03.50 bitrate=   1.7kbits/s speed=0.519x    frame=  222 fps= 31 q=33.0 size=       1kB time=00:00:03.82 bitrate=   1.6kbits/s speed=0.527x    frame=  240 fps= 31 q=33.0 size=       1kB time=00:00:04.18 bitrate=   1.4kbits/s speed=0.538x    frame=  258 fps= 31 q=31.0 size=       1kB time=00:00:04.54 bitrate=   1.3kbits/s speed=0.548x    frame=  275 fps= 31 q=34.0 size=    5143kB time=00:00:04.88 bitrate=8632.1kbits/s speed=0.555x    frame=  293 fps= 31 q=37.0 size=    5412kB time=00:00:05.24 bitrate=8460.0kbits/s speed=0.563x    frame=  311 fps= 32 q=35.0 size=    5412kB time=00:00:05.60 bitrate=7916.2kbits/s speed=0.57x    frame=  329 fps= 32 q=37.0 size=    5412kB time=00:00:05.96 bitrate=7438.1kbits/s speed=0.577x    frame=  341 fps= 31 q=36.0 size=    5412kB time=00:00:06.20 bitrate=7150.2kbits/s speed=0.563x    frame=  359 fps= 31 q=32.0 size=    5412kB time=00:00:06.56 bitrate=6757.9kbits/s speed=0.57x    frame=  377 fps= 31 q=35.0 size=    5412kB time=00:00:06.92 bitrate=6406.4kbits/s speed=0.575x    frame=  395 fps= 31 q=33.0 size=    5412kB time=00:00:07.28 bitrate=6089.6kbits/s speed=0.58x    frame=  413 fps= 32 q=32.0 size=    5412kB time=00:00:07.64 bitrate=5802.7kbits/s speed=0.585x    frame=  431 fps= 32 q=35.0 size=    5412kB time=00:00:08.00 bitrate=5541.6kbits/s speed=0.589x    frame=  449 fps= 32 q=32.0 size=    5412kB time=00:00:08.36 bitrate=5303.0kbits/s speed=0.593x    frame=  467 fps= 32 q=32.0 size=    5412kB time=00:00:08.72 bitrate=5084.1kbits/s speed=0.597x    frame=  485 fps= 32 q=35.0 size=    5412kB time=00:00:09.08 bitrate=4882.6kbits/s speed=0.601x    frame=  500 fps= 32 q=32.0 Lsize=   10922kB time=00:00:09.98 bitrate=8964.4kbits/s speed=0.64x    
video:10918kB audio:0kB subtitle:0kB other streams:0kB global headers:0kB muxing overhead: 0.041361%
bench: utime=1.208s
bench: maxrss=1396936kB
